<?xml version="1.0"?>
<svg version="1.1" xmlns="http://www.w3.org/2000/svg" xmlns:xlink="http://www.w3.org/1999/xlink" width="48" height="48">
    <desc iVinci="yes" version="4.6" gridStep="20" showGrid="no" snapToGrid="no" codePlatform="0"/>
    <g id="Layer1" name="Layer 1" opacity="1">
        <g id="Shape1">
            <desc shapeID="1" type="0" basicInfo-basicType="0" basicInfo-roundedRectRadius="12" basicInfo-polygonSides="6" basicInfo-starPoints="5" bounding="rect(-206,-134.312,411.999,268.625)" text="" font-familyName="" font-pixelSize="20" font-bold="0" font-underline="0" font-alignment="1" strokeStyle="0" markerStart="0" markerEnd="0" shadowEnabled="0" shadowOffsetX="0" shadowOffsetY="2" shadowBlur="4" shadowOpacity="160" blurEnabled="0" blurRadius="4" transform="matrix(0.110026,0,0,0.110026,24,24)" pers-center="0,0" pers-size="0,0" pers-start="0,0" pers-end="0,0" locked="0" mesh="" flag=""/>
            <path id="shapePath1" d="M16.2255,21.6034 C16.2255,22.8076 15.2457,23.7875 14.0412,23.7875 C12.837,23.7875 11.8571,22.8078 11.8571,21.6034 C11.8571,20.3991 12.8369,19.4193 14.0412,19.4193 C15.2457,19.4193 16.2255,20.3991 16.2255,21.6034 M43.3599,38.58 C42.6628,38.9243 41.8263,38.8123 41.2445,38.2968 L35.3708,33.0923 C34.3174,32.1592 33.4016,31.1953 30.8307,31.1953 L17.1691,31.1953 C14.5984,31.1953 13.6825,32.1592 12.6291,33.0923 L6.75545,38.2967 C6.17374,38.8123 5.33711,38.9242 4.64021,38.5799 C-0.530006,36.0263 0.598965,29.3126 6.39698,14.6231 C8.67572,8.84991 13.59,8.38979 16.8755,10.082 C21.4534,12.44 26.6401,12.3916 31.1245,10.082 C34.4099,8.38979 39.3242,8.85002 41.603,14.6231 C47.4011,29.3126 48.53,36.0265 43.3599,38.58 M18.426,21.6034 C18.426,19.1857 16.459,17.2188 14.0412,17.2188 C11.6235,17.2188 9.6566,19.1857 9.6566,21.6034 C9.6566,24.0211 11.6235,25.988 14.0412,25.988 C16.459,25.9879 18.426,24.021 18.426,21.6034 M25.8327,17.2841 C25.8327,16.2763 25.016,15.4596 24.0081,15.4596 C23.0007,15.4596 22.1836,16.2763 22.1836,17.2841 C22.1836,18.2918 23.0007,19.1087 24.0081,19.1087 C25.016,19.1087 25.8327,18.2918 25.8327,17.2841 M31.9345,20.5644 C31.3759,20.0057 30.4698,20.0057 29.9108,20.5644 C29.3518,21.1236 29.3518,22.0294 29.9108,22.5885 C30.4696,23.1471 31.3758,23.1471 31.9345,22.5885 C32.4934,22.0295 32.4934,21.1236 31.9345,20.5644 M35.1002,23.4797 C34.5414,22.921 33.6352,22.921 33.0762,23.4797 C32.5176,24.0383 32.5176,24.9445 33.0762,25.5035 C33.6351,26.0623 34.5413,26.0623 35.1002,25.5035 C35.6589,24.9446 35.6589,24.0384 35.1002,23.4797 M35.1002,17.7033 C34.5414,17.1444 33.6352,17.1444 33.0762,17.7033 C32.5176,18.2619 32.5176,19.1681 33.0762,19.7271 C33.6351,20.2858 34.5413,20.2858 35.1002,19.7271 C35.6589,19.1682 35.6589,18.262 35.1002,17.7033 M38.2562,20.5644 C37.6973,20.0057 36.7912,20.0057 36.2324,20.5644 C35.6736,21.1236 35.6736,22.0294 36.2324,22.5885 C36.7911,23.1471 37.6972,23.1471 38.2562,22.5885 C38.8149,22.0295 38.8149,21.1236 38.2562,20.5644 Z" style="stroke:none;fill-rule:nonzero;fill:#303030;fill-opacity:1;"/>
        </g>
    </g>
</svg>
