<?xml version="1.0"?>
<svg version="1.1" xmlns="http://www.w3.org/2000/svg" xmlns:xlink="http://www.w3.org/1999/xlink" width="48" height="48">
    <desc iVinci="yes" version="4.6" gridStep="20" showGrid="no" snapToGrid="no" codePlatform="0"/>
    <g id="Layer1" name="Layer 1" opacity="1">
        <g id="Shape1">
            <desc shapeID="1" type="0" basicInfo-basicType="0" basicInfo-roundedRectRadius="12" basicInfo-polygonSides="6" basicInfo-starPoints="5" bounding="rect(-205.912,-206,411.824,412.001)" text="" font-familyName="" font-pixelSize="20" font-bold="0" font-underline="0" font-alignment="1" strokeStyle="0" markerStart="0" markerEnd="0" shadowEnabled="0" shadowOffsetX="0" shadowOffsetY="2" shadowBlur="4" shadowOpacity="160" blurEnabled="0" blurRadius="4" transform="matrix(0.11217,0,0,0.11217,24,24)" pers-center="0,0" pers-size="0,0" pers-start="0,0" pers-end="0,0" locked="0" mesh="" flag=""/>
            <path id="shapePath1" d="M25.5051,47.107 C31.6827,43.936 35.2843,37.1223 34.8948,32.3319 C32.4209,34.0132 28.2316,36.0565 26.014,36.7567 C28.4982,40.7103 27.8287,44.018 25.5051,47.107 M11.253,21.9958 C11.9533,19.7781 13.9967,15.5889 15.6779,13.1149 C10.8873,12.7252 4.07401,16.3269 0.902849,22.5048 C3.99167,20.1812 7.29956,19.5114 11.253,21.9958 M23.4912,34.0951 L13.9238,24.5276 C17.574,13.4784 28.1748,-0.461086 46.9705,0.998806 C48.5578,19.8077 34.9175,30.0839 23.4912,34.0951 M30.1844,21.4664 C31.1898,20.461 31.1898,18.8308 30.1844,17.8253 C29.1788,16.82 27.5488,16.82 26.5432,17.8257 C25.5379,18.831 25.5377,20.4611 26.5432,21.4664 C27.5487,22.4719 29.1789,22.4719 30.1844,21.4664 M38.4747,15.5425 C40.1338,13.8838 40.1341,11.1936 38.475,9.53471 C36.8158,7.87583 34.126,7.87583 32.467,9.53471 C30.8079,11.1938 30.8081,13.8835 32.467,15.5426 C34.1261,17.2015 36.8157,17.2015 38.4747,15.5425 M20.1115,35.6268 C17.3703,40.7024 12.1093,44.4258 4.37081,43.2816 C3.29229,35.9876 7.11033,30.7087 12.4708,27.986 L14.1265,29.6418 C8.19221,32.365 7.80511,37.3505 8.20332,39.4591 C10.3758,39.8633 15.7248,39.6033 18.4725,33.9879 L20.1115,35.6268 Z" style="stroke:none;fill-rule:nonzero;fill:#303030;fill-opacity:1;"/>
        </g>
    </g>
</svg>
