<?xml version="1.0"?>
<svg version="1.1" xmlns="http://www.w3.org/2000/svg" xmlns:xlink="http://www.w3.org/1999/xlink" width="48" height="48">
    <desc iVinci="yes" version="4.6" gridStep="20" showGrid="no" snapToGrid="no" codePlatform="0"/>
    <g id="Layer1" name="Layer 1" opacity="1">
        <g id="Shape1">
            <desc shapeID="1" type="0" basicInfo-basicType="0" basicInfo-roundedRectRadius="12" basicInfo-polygonSides="6" basicInfo-starPoints="5" bounding="rect(-206,-206,412,412)" text="" font-familyName="" font-pixelSize="20" font-bold="0" font-underline="0" font-alignment="1" strokeStyle="0" markerStart="0" markerEnd="0" shadowEnabled="0" shadowOffsetX="0" shadowOffsetY="2" shadowBlur="4" shadowOpacity="160" blurEnabled="0" blurRadius="4" transform="matrix(0.104369,0,0,0.104369,24,24)" pers-center="0,0" pers-size="0,0" pers-start="0,0" pers-end="0,0" locked="0" mesh="" flag=""/>
            <path id="shapePath1" d="M22.684,14.6417 L45.2014,10.1782 L45.1863,10.1023 L43.6796,2.5 L5.75193,10.0182 C3.86411,10.3924 2.5,12.0482 2.5,13.9726 C2.5,18.9462 2.5,31.5796 2.5,39.2596 C2.5,42.7057 5.29333,45.5 8.73949,45.5 L39.2596,45.5 C42.706,45.5 45.5,42.706 45.5,39.2596 L45.5,14.719 L45.5,14.6417 L22.684,14.6417 M38.5308,5.6486 L42.8244,8.52177 L37.4602,9.5878 L33.1634,6.71243 L38.5308,5.6486 M27.964,7.74308 L32.2639,10.6203 L26.9,11.6862 L22.597,8.80691 L27.964,7.74308 M17.3856,9.83995 L21.6916,12.7214 L16.3275,13.7873 L12.0184,10.9039 L17.3856,9.83995 M12.8085,20.3819 L16.4614,16.729 L21.9331,16.729 L18.2802,20.3819 L12.8085,20.3819 M21.1815,38.2135 L21.1815,25.6014 L31.4669,31.9076 L21.1815,38.2135 M29.0648,20.3819 L23.5932,20.3819 L27.2461,16.729 L32.7177,16.729 L29.0648,20.3819 M39.837,20.3819 L34.3654,20.3819 L38.0183,16.729 L43.4899,16.729 L39.837,20.3819 Z" style="stroke:none;fill-rule:nonzero;fill:#303030;fill-opacity:1;"/>
        </g>
    </g>
</svg>
