<?xml version="1.0"?>
<svg version="1.1" xmlns="http://www.w3.org/2000/svg" xmlns:xlink="http://www.w3.org/1999/xlink" width="48" height="48">
    <desc iVinci="yes" version="4.6" gridStep="20" showGrid="no" snapToGrid="no" codePlatform="0"/>
    <g id="Layer1" name="Layer 1" opacity="1">
        <g id="Shape1">
            <desc shapeID="1" type="0" basicInfo-basicType="0" basicInfo-roundedRectRadius="12" basicInfo-polygonSides="6" basicInfo-starPoints="5" bounding="rect(-203.504,-205.999,407.007,411.999)" text="" font-familyName="" font-pixelSize="20" font-bold="0" font-underline="0" font-alignment="1" strokeStyle="0" markerStart="0" markerEnd="0" shadowEnabled="0" shadowOffsetX="0" shadowOffsetY="2" shadowBlur="4" shadowOpacity="160" blurEnabled="0" blurRadius="4" transform="matrix(0.117211,0,0,0.117211,23.8528,24.1454)" pers-center="0,0" pers-size="0,0" pers-start="0,0" pers-end="0,0" locked="0" mesh="" flag=""/>
            <path id="shapePath1" d="M40.8461,18.386 C38.817,21.1389 35.8084,23.8553 32.4182,23.4119 C31.4997,24.6921 30.477,26.4779 29.3393,28.5528 L26.711,29.3763 C28.9353,25.043 31.9067,20.2501 35.0939,16.6089 C33.7137,17.5061 31.4457,19.4363 29.473,21.4711 C27.6931,17.7602 29.5689,14.323 32.2888,11.6982 C32.211,12.9343 32.761,14.0626 33.1722,14.6425 C33.1026,13.6084 33.2229,11.7616 33.9773,10.16 C35.4924,8.88454 36.8319,7.96643 38.3627,7.16283 C38.1141,8.06735 38.3259,9.1512 38.6172,9.82751 C38.7493,8.89064 39.3077,7.12052 39.9524,6.38666 C41.8619,5.15594 44.6887,4.17278 47.7057,4.22306 C47.3718,6.07851 46.3974,9.09189 45.0785,10.9615 C44.0145,11.644 42.6075,12.0443 41.4866,12.2358 C42.4151,12.4962 43.4556,12.5724 44.3592,12.5053 C43.7022,13.8839 43.0339,15.1482 42.0241,16.6974 C40.6322,17.4736 38.8534,17.8155 37.6367,17.8802 C38.4873,18.3251 40.0378,18.585 40.8461,18.386 M36.4357,35.2254 C36.3492,35.2821 17.3089,47.2942 17.3089,47.2942 L17.3068,47.2911 C14.3398,49.0593 10.8075,48.3542 8.63085,46.1778 C5.48432,43.0311 6.03357,37.6984 9.82804,35.2384 L12.0046,38.0333 C8.7041,39.7905 9.98334,44.7724 13.6808,44.7724 C16.6205,44.7724 18.308,41.4001 16.5402,39.0492 C16.5402,39.0492 4.70311,23.911 1.75151,20.1999 C-1.32434,16.3325 -0.212711,11.148 4.01825,9.12072 L20.7167,0.574053 L20.7193,0.57921 C23.8071,-0.793329 27.5065,0.332012 29.2672,3.33472 C30.98,6.25656 30.2659,10.0817 27.4475,12.1621 L10.9407,21.4895 L8.76025,18.6801 C12.0581,16.9181 10.7724,11.943 7.07956,11.943 C4.57606,11.943 2.11627,14.9618 4.51675,18.0319 C7.39767,21.7166 19.1089,36.628 19.1089,36.628 C20.1624,37.8789 20.719,39.4043 20.7705,40.955 C20.7705,40.955 32.4645,33.5843 34.2659,32.4291 C36.1252,31.2367 36.4691,28.9816 35.1022,27.3918 C35.0969,27.3857 34.7648,26.9783 34.2304,26.3227 C35.4387,26.1735 36.6332,25.7736 37.7991,25.1331 C40.8018,28.8104 39.4177,33.27 36.4357,35.2254 M10.9018,9.54655 C12.94,10.853 14.2314,13.1402 14.1709,15.6958 L25.0475,9.53518 C26.7495,8.55975 27.0252,6.62987 26.2871,5.21725 C25.4314,3.57911 23.5343,3.14683 22.0977,3.81611 L10.9018,9.54655 M22.9599,30.5121 C23.4825,29.4801 24.3835,27.6881 25.2587,26.019 L17.983,30.2821 L19.5905,32.4863 L22.9599,30.5121 M14.6182,25.8426 L16.2258,28.0469 L26.8441,21.8253 L25.1707,19.6599 L14.6182,25.8426 Z" style="stroke:none;fill-rule:nonzero;fill:#303030;fill-opacity:1;"/>
        </g>
    </g>
</svg>
