<?xml version="1.0"?>
<svg version="1.1" xmlns="http://www.w3.org/2000/svg" xmlns:xlink="http://www.w3.org/1999/xlink" width="48" height="48">
    <desc iVinci="yes" version="4.6" gridStep="20" showGrid="no" snapToGrid="no" codePlatform="0"/>
    <g id="Layer1" name="Layer 1" opacity="1">
        <g id="Shape1">
            <desc shapeID="1" type="0" basicInfo-basicType="0" basicInfo-roundedRectRadius="12" basicInfo-polygonSides="6" basicInfo-starPoints="5" bounding="rect(-154.5,-206,309.001,412)" text="" font-familyName="" font-pixelSize="20" font-bold="0" font-underline="0" font-alignment="1" strokeStyle="0" markerStart="0" markerEnd="0" shadowEnabled="0" shadowOffsetX="0" shadowOffsetY="2" shadowBlur="4" shadowOpacity="160" blurEnabled="0" blurRadius="4" transform="matrix(0.11586,0,0,0.11586,24,24.0672)" pers-center="0,0" pers-size="0,0" pers-start="0,0" pers-end="0,0" locked="0" mesh="" flag=""/>
            <path id="shapePath1" d="M41.9004,6.1668 C41.9004,2.87069 39.2298,0.200003 35.9336,0.200003 C32.6375,0.200003 29.9669,2.87069 29.9669,6.1668 C29.9669,8.79867 31.68,11.0051 34.0437,11.7996 C34.3779,20.3418 30.0232,21.2752 24.1039,22.5221 C20.7038,23.2388 16.861,24.0643 14.0553,26.67 L14.0553,11.7684 C16.3677,10.9468 18.0331,8.76172 18.0331,6.1668 C18.0331,2.87069 15.3625,0.200003 12.0663,0.200003 C8.77024,0.200003 6.09955,2.87069 6.09955,6.1668 C6.09955,8.76172 7.76504,10.9468 10.0774,11.7684 L10.0774,36.366 C7.76504,37.1875 6.09955,39.3726 6.09955,41.9676 C6.09955,45.2637 8.77024,47.9344 12.0663,47.9344 C15.3625,47.9344 18.0331,45.2637 18.0331,41.9676 C18.0331,39.3921 16.3938,37.2187 14.1097,36.3814 C14.6467,28.5812 19.2219,27.6159 24.9233,26.4136 C30.965,25.1413 38.3964,23.5466 38.0079,11.7413 C40.2765,10.8963 41.9004,8.72974 41.9004,6.1668 M8.48685,6.1668 C8.48685,4.19243 10.0921,2.58719 12.0665,2.58719 C14.0408,2.58719 15.6461,4.19243 15.6461,6.1668 C15.6461,8.14117 14.0408,9.74641 12.0665,9.74641 C10.0921,9.74641 8.48685,8.14117 8.48685,6.1668 M15.6461,41.9676 C15.6461,43.941 14.0408,45.5472 12.0665,45.5472 C10.0921,45.5472 8.48685,43.941 8.48685,41.9676 C8.48685,39.9941 10.0921,38.388 12.0665,38.388 C14.0408,38.388 15.6461,39.9941 15.6461,41.9676 Z" style="stroke:none;fill-rule:nonzero;fill:#303030;fill-opacity:1;"/>
        </g>
    </g>
</svg>
